<?xml version="1.0" encoding="UTF-8" standalone="no"?>
<!--?xml version="1.0" encoding="utf-8"?-->

<!-- Generator: Adobe Illustrator 18.0.0, SVG Export Plug-In . SVG Version: 6.00 Build 0)  -->

<svg
   xmlns:dc="http://purl.org/dc/elements/1.1/"
   xmlns:cc="http://creativecommons.org/ns#"
   xmlns:rdf="http://www.w3.org/1999/02/22-rdf-syntax-ns#"
   xmlns:svg="http://www.w3.org/2000/svg"
   xmlns="http://www.w3.org/2000/svg"
   xmlns:sodipodi="http://sodipodi.sourceforge.net/DTD/sodipodi-0.dtd"
   xmlns:inkscape="http://www.inkscape.org/namespaces/inkscape"
   version="1.1"
   id="_x32_"
   x="0px"
   y="0px"
   viewBox="0 0 512 512"
   style="width: 256px; height: 256px; opacity: 1;"
   xml:space="preserve"
   sodipodi:docname="gears.svg"
   inkscape:version="0.92.4 (5da689c313, 2019-01-14)"><metadata
   id="metadata15"><rdf:RDF><cc:Work
       rdf:about=""><dc:format>image/svg+xml</dc:format><dc:type
         rdf:resource="http://purl.org/dc/dcmitype/StillImage" /><dc:title /></cc:Work></rdf:RDF></metadata><defs
   id="defs13">
	
	
</defs><sodipodi:namedview
   pagecolor="#ffffff"
   bordercolor="#666666"
   borderopacity="1"
   objecttolerance="10"
   gridtolerance="10"
   guidetolerance="10"
   inkscape:pageopacity="0"
   inkscape:pageshadow="2"
   inkscape:window-width="1366"
   inkscape:window-height="705"
   id="namedview11"
   showgrid="false"
   inkscape:zoom="0.65186406"
   inkscape:cx="-78.223675"
   inkscape:cy="297.25055"
   inkscape:window-x="-8"
   inkscape:window-y="-8"
   inkscape:window-maximized="1"
   inkscape:current-layer="_x32_" />
<style
   type="text/css"
   id="style2">
	.st0{fill:#4B4B4B;}
</style>
<path
   inkscape:connector-curvature="0"
   id="path4"
   style="fill:#ffffff;fill-opacity:1;stroke:#000000;stroke-width:8;stroke-miterlimit:4;stroke-dasharray:none;stroke-opacity:1"
   d="m 184.52695,215.93539 -17.32878,-1.87666 c -2.37089,-0.25655 -4.37583,-1.81544 -5.28616,-4.01898 -0.0111,-0.0261 -0.0221,-0.0527 -0.0326,-0.0788 -0.91359,-2.20288 -0.59907,-4.72223 0.89599,-6.58 l 10.92653,-13.58003 c 2.06029,-2.56037 1.86038,-6.2616 -0.46362,-8.5856 L 152.78459,160.7616 c -2.324,-2.324 -6.02457,-2.52391 -8.5856,-0.46362 l -13.58588,10.93109 c -1.85322,1.49116 -4.3654,1.80763 -6.56504,0.90251 -0.0241,-0.01 -0.0482,-0.0195 -0.0722,-0.0293 -2.21136,-0.90772 -3.7761,-2.91591 -4.03331,-5.29266 l -1.87731,-17.33659 c -0.35358,-3.26754 -3.11191,-5.74327 -6.39833,-5.74327 H 82.740872 c -3.286426,0 -6.044757,2.47573 -6.398339,5.74327 l -1.877306,17.33659 c -0.25721,2.3761 -1.822608,4.38494 -4.033962,5.29266 -0.02409,0.01 -0.04818,0.0195 -0.07163,0.0293 -2.199631,0.90577 -4.711822,0.58865 -6.565035,-0.90251 L 50.207412,160.29798 c -2.560378,-2.06029 -6.261594,-1.86038 -8.584948,0.46362 l -20.453716,20.45372 c -2.324005,2.324 -2.523912,6.02522 -0.463628,8.5856 l 10.926533,13.58003 c 1.495073,1.85842 1.809586,4.37712 0.896002,6.58 -0.01107,0.0261 -0.02149,0.0527 -0.03256,0.0788 -0.910978,2.20354 -2.915262,3.76243 -5.28615,4.01898 l -17.329431,1.87666 c -3.2675414,0.35358 -5.7432673,3.11191 -5.7432673,6.39834 v 28.92601 c 0,3.28643 2.4757259,6.04476 5.7432673,6.39834 l 17.32878,1.876 c 2.370888,0.25656 4.375823,1.81545 5.28615,4.01899 0.01107,0.0261 0.02149,0.0527 0.03255,0.0788 0.913584,2.2029 0.599071,4.72225 -0.896001,6.58067 l -10.926534,13.58003 c -2.060284,2.56038 -1.860376,6.26159 0.463629,8.58559 l 20.453716,20.45372 c 2.324004,2.324 6.025221,2.52391 8.585598,0.46363 l 13.58589,-10.93108 c 1.853212,-1.49182 4.365403,-1.80828 6.565035,-0.90251 0.02409,0.01 0.04818,0.0195 0.07227,0.0293 2.211354,0.90772 3.776101,2.91591 4.03331,5.29266 l 1.877307,17.3366 c 0.353582,3.26754 3.111913,5.74326 6.398338,5.74326 h 28.926018 c 3.28643,0 6.04476,-2.47572 6.39835,-5.74326 l 1.8773,-17.3366 c 0.25721,-2.37609 1.82195,-4.38494 4.03331,-5.29266 0.0241,-0.01 0.0482,-0.0195 0.0716,-0.0293 2.19963,-0.90577 4.71182,-0.58931 6.56569,0.90251 l 13.58588,10.93109 c 2.56039,2.06028 6.2616,1.86037 8.5856,-0.46363 l 20.45372,-20.45372 c 2.324,-2.324 2.52326,-6.02521 0.46363,-8.58559 l -10.92653,-13.58003 c -1.49507,-1.85777 -1.80959,-4.37713 -0.896,-6.58067 0.0104,-0.0261 0.0215,-0.0521 0.0325,-0.0788 0.91098,-2.20354 2.91527,-3.76243 5.28616,-4.01899 l 17.32877,-1.876 c 3.2669,-0.35424 5.74327,-3.11257 5.74327,-6.39834 v -28.92601 c 9.4e-4,-3.28643 -2.47442,-6.04476 -5.74196,-6.39834 z m -87.323723,49.87656 c -16.024498,0 -29.015221,-12.99072 -29.015221,-29.01522 0,-16.02449 12.990723,-29.01522 29.015221,-29.01522 16.024503,0 29.015223,12.99073 29.015223,29.01522 0,16.0245 -12.99072,29.01522 -29.015223,29.01522 z"
   class="st0" /><path
   inkscape:connector-curvature="0"
   id="path6"
   style="fill:#000000;fill-opacity:1;stroke-width:0.67373621"
   d="m 293.24737,130.90305 -12.30849,-9.71999 c -1.96057,-1.54825 -3.04933,-3.92182 -3.05068,-6.42071 0,-0.0263 0,-0.0525 0,-0.0795 -0.004,-2.50428 1.08539,-4.88391 3.05068,-6.43553 l 12.30849,-9.72066 c 2.81891,-2.226033 3.81604,-6.053523 2.44162,-9.371673 l -5.40674,-13.05297 c -1.37442,-3.31882 -4.78622,-5.31982 -8.35298,-4.90076 l -15.57678,1.82987 c -2.48743,0.2924 -4.94051,-0.61984 -6.70772,-2.39378 -0.0182,-0.0189 -0.0371,-0.0377 -0.0559,-0.0559 -1.76653,-1.76789 -2.67473,-4.21624 -2.383,-6.69761 l 1.82987,-15.576111 c 0.41906,-3.566759 -1.58261,-6.97856 -4.90076,-8.352981 l -13.05297,-5.40606 c -3.31815,-1.374421 -7.14564,-0.377292 -9.37167,2.440947 l -9.72066,12.307812 c -1.54892,1.961246 -3.92249,3.04933 -6.42071,3.050678 -0.0269,0 -0.0532,0 -0.0795,0 -2.5036,0.004 -4.88324,-1.085389 -6.43553,-3.050678 l -9.72066,-12.308486 c -2.22603,-2.818912 -6.0542,-3.816042 -9.37235,-2.44162 l -13.05296,5.406733 c -3.31815,1.374422 -5.31982,4.786222 -4.90076,8.353655 l 1.82987,15.576781 c 0.2924,2.48676 -0.61984,4.93983 -2.39379,6.70772 -0.0189,0.0189 -0.0377,0.0377 -0.0566,0.0566 -1.76788,1.76654 -4.21557,2.67473 -6.69761,2.38301 l -15.57611,-1.82987 c -3.56743,-0.41907 -6.97856,1.5826 -8.35298,4.90076 l -5.40673,13.05296 c -1.37442,3.31815 -0.37729,7.14632 2.44162,9.372343 l 12.30781,9.72 c 1.96125,1.54892 3.04933,3.92182 3.05068,6.4207 0,0.0269 0,0.0532 0,0.0795 0.005,2.50428 -1.08539,4.88392 -3.05068,6.43553 l -12.30849,9.72067 c -2.81891,2.22602 -3.81604,6.05352 -2.44094,9.37167 l 5.40606,13.05296 c 1.37442,3.31815 4.78622,5.31982 8.35298,4.90076 l 15.57745,-1.82987 c 2.48676,-0.2924 4.93984,0.61984 6.70772,2.39379 0.0189,0.0189 0.0371,0.0377 0.0559,0.0559 1.76654,1.76788 2.67473,4.21556 2.38301,6.69761 l -1.82987,15.57678 c -0.41907,3.56743 1.5826,6.97856 4.90075,8.35298 l 13.05297,5.40673 c 3.31815,1.37443 7.14565,0.3773 9.37234,-2.44162 l 9.72,-12.30781 c 1.54892,-1.96124 3.92181,-3.04933 6.4207,-3.05068 0.0263,0 0.0525,0 0.0795,0 2.50361,-0.005 4.88392,1.08539 6.43553,3.05068 l 9.72067,12.30849 c 2.22602,2.81891 6.05352,3.81604 9.37234,2.44162 l 13.05297,-5.40674 c 3.31815,-1.37442 5.31982,-4.78622 4.90075,-8.35298 l -1.82987,-15.57678 c -0.2924,-2.48676 0.61984,-4.9405 2.39379,-6.70771 0.0189,-0.0189 0.0377,-0.0377 0.0566,-0.0559 1.76789,-1.76587 4.21557,-2.67474 6.69761,-2.38301 l 15.57679,1.82987 c 3.56743,0.41906 6.97855,-1.58261 8.35298,-4.90076 l 5.40673,-13.05296 c 1.37307,-3.32018 0.37662,-7.14835 -2.44229,-9.37437 z m -69.74585,7.06682 c -12.52071,5.18642 -26.87533,-0.7593 -32.06176,-13.28069 -5.18642,-12.52139 0.75998,-26.875343 13.28069,-32.061763 12.52072,-5.18642 26.87534,0.7593 32.06176,13.280693 5.18575,12.52072 -0.75997,26.87601 -13.28069,32.06176 z"
   class="st0" />
<path
   inkscape:connector-curvature="0"
   id="path4-5"
   style="opacity:1;fill:#000000;fill-opacity:1;stroke-width:0.61098093"
   d="m 446.17959,157.00097 -16.18625,-1.76881 c -2.21457,-0.24183 -4.08731,-1.71112 -4.93761,-3.78804 -0.0107,-0.0246 -0.0206,-0.0497 -0.0304,-0.0743 -0.85336,-2.0763 -0.55957,-4.45087 0.83693,-6.20188 l 10.20612,-12.79961 c 1.92443,-2.41324 1.73771,-5.90176 -0.43308,-8.09221 l -19.10514,-19.27829 c -2.17077,-2.19045 -5.62736,-2.37887 -8.01953,-0.43698 l -12.69013,10.30291 c -1.73103,1.40546 -4.07758,1.70375 -6.13219,0.85065 -0.0225,-0.009 -0.0451,-0.0185 -0.0675,-0.0276 -2.06556,-0.85556 -3.52713,-2.74834 -3.76739,-4.9885 l -1.75352,-16.3403 c -0.33027,-3.079753 -2.90674,-5.413211 -5.97649,-5.413211 h -27.01884 c -3.06973,0 -5.6462,2.333458 -5.97648,5.413211 l -1.75352,16.34031 c -0.24025,2.23954 -1.70245,4.13294 -3.76799,4.9885 -0.0225,0.009 -0.0451,0.0184 -0.067,0.0276 -2.0546,0.85371 -4.40116,0.55481 -6.13218,-0.85065 l -12.69135,-10.30291 c -2.39157,-1.94189 -5.84875,-1.75347 -8.01892,0.43698 L 293.592,124.27616 c -2.17078,2.19045 -2.3575,5.67897 -0.43306,8.09221 l 10.20612,12.79961 c 1.3965,1.75163 1.69027,4.12558 0.83693,6.20188 -0.0107,0.0246 -0.0201,0.0497 -0.0304,0.0743 -0.85091,2.07692 -2.72305,3.54621 -4.93762,3.78804 l -16.18686,1.76881 c -3.0521,0.33325 -5.36459,2.93308 -5.36459,6.03063 v 27.26371 c 0,3.09756 2.31249,5.69737 5.36459,6.03063 l 16.18625,1.7682 c 2.21457,0.24181 4.08732,1.71111 4.93763,3.78803 0.0107,0.0246 0.0201,0.0496 0.0304,0.0743 0.85334,2.07629 0.55957,4.45085 -0.83693,6.20249 l -10.20612,12.7996 c -1.92444,2.41324 -1.73771,5.90176 0.43307,8.09221 l 19.10514,19.27828 c 2.17078,2.19046 5.62796,2.37887 8.01953,0.437 l 12.69013,-10.3029 c 1.73103,-1.4061 4.07759,-1.70438 6.13218,-0.85066 0.0225,0.009 0.0451,0.0184 0.0675,0.0276 2.06555,0.85556 3.52712,2.74835 3.76738,4.98851 l 1.75354,16.34031 c 0.33026,3.07976 2.90673,5.4132 5.97647,5.4132 h 27.01885 c 3.06973,0 5.6462,-2.33344 5.97648,-5.4132 l 1.75352,-16.34031 c 0.24025,-2.23955 1.70183,-4.13295 3.7674,-4.98851 0.0225,-0.009 0.0451,-0.0185 0.0669,-0.0276 2.05462,-0.85372 4.40117,-0.55544 6.13281,0.85066 l 12.69012,10.3029 c 2.39157,1.94187 5.84875,1.75346 8.01953,-0.437 l 19.10515,-19.27828 c 2.17078,-2.19045 2.3569,-5.67897 0.43306,-8.09221 L 425.86098,208.159 c -1.3965,-1.75101 -1.69026,-4.12559 -0.83692,-6.20249 0.009,-0.0247 0.0201,-0.0491 0.0304,-0.0743 0.85092,-2.07692 2.72305,-3.54622 4.93761,-3.78803 l 16.18625,-1.7682 c 3.0515,-0.33387 5.36461,-2.93369 5.36461,-6.03063 V 163.0316 c 10e-4,-3.09755 -2.31127,-5.69738 -5.36339,-6.03063 z m -81.56623,47.01027 c -14.96796,0 -27.10217,-12.24417 -27.10217,-27.34779 0,-15.10361 12.13421,-27.34779 27.10217,-27.34779 14.96796,0 27.10217,12.24418 27.10217,27.34779 0,15.10362 -12.13421,27.34779 -27.10217,27.34779 z"
   class="st0" /><path
   inkscape:connector-curvature="0"
   id="path6-1"
   style="opacity:1;fill:#ffffff;fill-opacity:1;stroke:#000000;stroke-width:8;stroke-miterlimit:4;stroke-dasharray:none;stroke-opacity:1"
   d="m 504.46825,346.23596 -12.30849,-9.71999 c -1.96057,-1.54825 -3.04933,-3.92182 -3.05068,-6.42071 0,-0.0263 0,-0.0525 0,-0.0795 -0.004,-2.50428 1.08539,-4.88391 3.05068,-6.43553 l 12.30849,-9.72066 c 2.81891,-2.22603 3.81604,-6.05352 2.44162,-9.37167 l -5.40674,-13.05297 c -1.37442,-3.31882 -4.78622,-5.31982 -8.35298,-4.90076 l -15.57678,1.82987 c -2.48743,0.2924 -4.94051,-0.61984 -6.70772,-2.39378 -0.0182,-0.0189 -0.0371,-0.0377 -0.0559,-0.0559 -1.76653,-1.76789 -2.67473,-4.21624 -2.383,-6.69761 l 1.82987,-15.57612 c 0.41906,-3.56675 -1.58261,-6.97856 -4.90076,-8.35298 l -13.05297,-5.40606 c -3.31815,-1.37442 -7.14564,-0.37729 -9.37167,2.44095 l -9.72066,12.30781 c -1.54892,1.96125 -3.92249,3.04933 -6.42071,3.05068 -0.0269,0 -0.0532,0 -0.0795,0 -2.5036,0.004 -4.88324,-1.08539 -6.43553,-3.05068 l -9.72066,-12.30848 c -2.22603,-2.81892 -6.0542,-3.81605 -9.37235,-2.44162 l -13.05296,5.40673 c -3.31815,1.37442 -5.31982,4.78622 -4.90076,8.35365 l 1.82987,15.57679 c 0.2924,2.48676 -0.61984,4.93983 -2.39379,6.70772 -0.0189,0.0189 -0.0377,0.0377 -0.0566,0.0566 -1.76788,1.76654 -4.21557,2.67473 -6.69761,2.38301 l -15.57611,-1.82987 c -3.56743,-0.41907 -6.97856,1.5826 -8.35298,4.90076 l -5.40673,13.05296 c -1.37442,3.31815 -0.37729,7.14632 2.44162,9.37234 l 12.30781,9.72 c 1.96125,1.54892 3.04933,3.92182 3.05068,6.4207 0,0.0269 0,0.0532 0,0.0795 0.005,2.50428 -1.08539,4.88392 -3.05068,6.43553 l -12.30849,9.72067 c -2.81891,2.22602 -3.81604,6.05352 -2.44094,9.37167 l 5.40606,13.05296 c 1.37442,3.31815 4.78622,5.31982 8.35298,4.90076 l 15.57745,-1.82987 c 2.48676,-0.2924 4.93984,0.61984 6.70772,2.39379 0.0189,0.0189 0.0371,0.0377 0.0559,0.0559 1.76654,1.76788 2.67473,4.21556 2.38301,6.69761 l -1.82987,15.57678 c -0.41907,3.56743 1.5826,6.97856 4.90075,8.35298 l 13.05297,5.40673 c 3.31815,1.37443 7.14565,0.3773 9.37234,-2.44162 l 9.72,-12.30781 c 1.54892,-1.96124 3.92181,-3.04933 6.4207,-3.05068 0.0263,0 0.0525,0 0.0795,0 2.50361,-0.005 4.88392,1.08539 6.43553,3.05068 l 9.72067,12.30849 c 2.22602,2.81891 6.05352,3.81604 9.37234,2.44162 l 13.05297,-5.40674 c 3.31815,-1.37442 5.31982,-4.78622 4.90075,-8.35298 l -1.82987,-15.57678 c -0.2924,-2.48676 0.61984,-4.9405 2.39379,-6.70771 0.0189,-0.0189 0.0377,-0.0377 0.0566,-0.0559 1.76789,-1.76587 4.21557,-2.67474 6.69761,-2.38301 l 15.57679,1.82987 c 3.56743,0.41906 6.97855,-1.58261 8.35298,-4.90076 l 5.40673,-13.05296 c 1.37307,-3.32018 0.37662,-7.14835 -2.44229,-9.37437 z m -69.74585,7.06682 c -12.52071,5.18642 -26.87533,-0.7593 -32.06176,-13.28069 -5.18642,-12.52139 0.75998,-26.87534 13.28069,-32.06176 12.52072,-5.18642 26.87534,0.7593 32.06176,13.28069 5.18575,12.52072 -0.75997,26.87601 -13.28069,32.06176 z"
   class="st0" /><path
   inkscape:connector-curvature="0"
   id="path4-9"
   style="opacity:1;fill:#000000;fill-opacity:1;stroke-width:0.65116411"
   d="m 359.12592,376.68616 -17.32878,-1.87666 c -2.37089,-0.25655 -4.37583,-1.81544 -5.28616,-4.01898 -0.0111,-0.0261 -0.0221,-0.0527 -0.0326,-0.0788 -0.91359,-2.20288 -0.59907,-4.72223 0.89599,-6.58 l 10.92653,-13.58003 c 2.06029,-2.56037 1.86038,-6.2616 -0.46362,-8.5856 l -20.45372,-20.45372 c -2.324,-2.324 -6.02457,-2.52391 -8.5856,-0.46362 l -13.58588,10.93109 c -1.85322,1.49116 -4.3654,1.80763 -6.56504,0.90251 -0.0241,-0.01 -0.0482,-0.0195 -0.0722,-0.0293 -2.21136,-0.90772 -3.7761,-2.91591 -4.03331,-5.29266 l -1.87731,-17.33659 c -0.35358,-3.26754 -3.11191,-5.74327 -6.39833,-5.74327 h -28.92605 c -3.28643,0 -6.04476,2.47573 -6.39834,5.74327 l -1.8773,17.33659 c -0.25721,2.3761 -1.82261,4.38494 -4.03397,5.29266 -0.0241,0.01 -0.0482,0.0195 -0.0716,0.0293 -2.19963,0.90577 -4.71182,0.58865 -6.56503,-0.90251 l -13.58719,-10.93109 c -2.56038,-2.06029 -6.26159,-1.86038 -8.58495,0.46362 l -20.45371,20.45372 c -2.32401,2.324 -2.52392,6.02522 -0.46363,8.5856 l 10.92653,13.58003 c 1.49507,1.85842 1.80959,4.37712 0.896,6.58 -0.0111,0.0261 -0.0215,0.0527 -0.0326,0.0788 -0.91097,2.20354 -2.91526,3.76243 -5.28615,4.01898 l -17.32943,1.87666 c -3.26754,0.35358 -5.74326,3.11191 -5.74326,6.39834 v 28.92601 c 0,3.28643 2.47572,6.04476 5.74326,6.39834 l 17.32878,1.876 c 2.37089,0.25656 4.37583,1.81545 5.28615,4.01899 0.0111,0.0261 0.0215,0.0527 0.0325,0.0788 0.91359,2.2029 0.59907,4.72225 -0.896,6.58067 l -10.92653,13.58003 c -2.06029,2.56038 -1.86038,6.26159 0.46363,8.58559 l 20.45371,20.45372 c 2.32401,2.324 6.02522,2.52391 8.5856,0.46363 L 238.3922,463.1152 c 1.85321,-1.49182 4.3654,-1.80828 6.56504,-0.90251 0.0241,0.01 0.0482,0.0195 0.0723,0.0293 2.21135,0.90772 3.7761,2.91591 4.03331,5.29266 l 1.8773,17.3366 c 0.35358,3.26754 3.11192,5.74326 6.39834,5.74326 h 28.92602 c 3.28643,0 6.04476,-2.47572 6.39835,-5.74326 l 1.8773,-17.3366 c 0.25721,-2.37609 1.82195,-4.38494 4.03331,-5.29266 0.0241,-0.01 0.0482,-0.0195 0.0716,-0.0293 2.19963,-0.90577 4.71182,-0.58931 6.56569,0.90251 l 13.58588,10.93109 c 2.56039,2.06028 6.2616,1.86037 8.5856,-0.46363 l 20.45372,-20.45372 c 2.324,-2.324 2.52326,-6.02521 0.46363,-8.58559 l -10.92653,-13.58003 c -1.49507,-1.85777 -1.80959,-4.37713 -0.896,-6.58067 0.0104,-0.0261 0.0215,-0.0521 0.0325,-0.0788 0.91098,-2.20354 2.91527,-3.76243 5.28616,-4.01899 l 17.32877,-1.876 c 3.2669,-0.35424 5.74327,-3.11257 5.74327,-6.39834 v -28.92601 c 9.4e-4,-3.28643 -2.47442,-6.04476 -5.74196,-6.39834 z m -87.32372,49.87656 c -16.0245,0 -29.01523,-12.99072 -29.01523,-29.01522 0,-16.02449 12.99073,-29.01522 29.01523,-29.01522 16.0245,0 29.01522,12.99073 29.01522,29.01522 0,16.0245 -12.99072,29.01522 -29.01522,29.01522 z"
   class="st0" /></svg>