<!--?xml version="1.0" encoding="utf-8"?-->
<!-- Generator: Adobe Illustrator 18.0.0, SVG Export Plug-In . SVG Version: 6.00 Build 0)  -->

<svg version="1.1" id="_x32_" xmlns="http://www.w3.org/2000/svg" xmlns:xlink="http://www.w3.org/1999/xlink" x="0px" y="0px" viewBox="0 0 512 512" style="enable-background:new 0 0 512 512;" xml:space="preserve">
<style type="text/css">
	.st0{fill:#4B4B4B;}
</style>
<g>
	<path class="st0" d="M107.094,411.812h80.633c5.66,0,10.246-4.25,10.246-9.496V282.598c0-5.246-4.586-9.5-10.246-9.5h-80.633
		c-5.658,0-10.246,4.254-10.246,9.5v119.719C96.848,407.562,101.436,411.812,107.094,411.812z"></path>
	<path class="st0" d="M254.108,236.082c-5.66,0-10.248,4.254-10.248,9.496v156.738c0,5.246,4.588,9.496,10.248,9.496h80.631
		c5.66,0,10.248-4.25,10.248-9.496V245.578c0-5.242-4.588-9.496-10.248-9.496H254.108z"></path>
	<path class="st0" d="M390.873,178.426v223.891c0,5.246,4.588,9.496,10.246,9.496h80.633c5.658,0,10.248-4.25,10.248-9.496V178.426
		c0-5.246-4.59-9.496-10.248-9.496h-80.633C395.461,168.93,390.873,173.18,390.873,178.426z"></path>
	<polygon class="st0" points="495.426,455.094 56.902,455.094 56.902,16.57 56.902,0 0,0 0,16.57 0,455.094 0,495.422 0,512 
		16.574,512 56.902,512 495.426,512 512,512 512,455.094 	"></polygon>
	<polygon class="st0" points="224.221,119.027 307.308,201.688 426.742,82.863 454.008,109.988 472.43,0 361.879,18.332 
		389.142,45.457 307.308,126.875 224.221,44.211 96.848,170.926 134.447,208.336 	"></polygon>
</g>
</svg>
