<!--?xml version="1.0" encoding="utf-8"?-->
<!-- Generator: Adobe Illustrator 18.1.1, SVG Export Plug-In . SVG Version: 6.00 Build 0)  -->

<svg version="1.1" id="_x32_" xmlns="http://www.w3.org/2000/svg" xmlns:xlink="http://www.w3.org/1999/xlink" x="0px" y="0px" viewBox="0 0 512 512" style="width: 256px; height: 256px;" xml:space="preserve">
<style type="text/css">
	.st0{fill:#4B4B4B;}
</style>
<g>
	<path class="st0" d="M79.59,353.481l52.954-93.223l43.372,25.052l-58.984-102.256L0,183.307l41.677,24.613
		c0,0-24.854,41.764-30.344,51.38c-8.835,15.415-13.369,37.98-3.554,53.67c1.496,2.464,29.706,52.712,52.46,92.188
		c0.473-17.516,9.406-33.822,19.398-51.678H79.59z"></path>
	<path class="st0" d="M75.531,431.741c1.265,2.178,2.542,4.346,3.74,6.48c5.799,10.034,19.76,23.214,74.035,22.258
		c11.85-0.221,59.05,0.109,73.132,0.22l0.683-106.151l-138.168-0.957C73.342,381.416,60.106,404.994,75.531,431.741z"></path>
	<path class="st0" d="M191.067,3.804h-7.471c-11.552,0-30.004,5.49-56.288,52.987c-5.732,10.353-29.618,51.073-36.736,63.198
		l91.55,53.692l69.976-119.189C235.759,27.052,221.962,3.804,191.067,3.804z"></path>
	<path class="st0" d="M385.764,163.988L444,62.611L401.872,86.41c0,0-23.82-42.458-29.343-51.976
		c-8.923-15.37-26.218-30.553-44.702-29.937c-2.839,0.077-60.503-0.616-106.074-0.66c14.909,9.186,24.59,25.052,35.009,42.646
		l0.044-0.088l54.297,92.54l-43.394,25.053H385.764z"></path>
	<path class="st0" d="M434.164,354.141l-107.262,0.77v-50.093l-59.038,102.255l58.664,101.123l0.496-48.377
		c0,0,48.64,0.605,59.676,0.55c17.78-0.076,39.543-7.404,48.268-23.765c1.353-2.498,30.784-52.118,53.582-91.496
		c-15.36,8.318-33.998,8.748-54.407,9.001L434.164,354.141z"></path>
	<path class="st0" d="M489.935,236.844c-6.072-10.177-29.387-51.182-36.341-63.45l-92.276,52.449l68.226,120.19
		c31.906-0.408,58.939-0.738,74.386-27.44c1.276-2.212,2.519-4.368,3.774-6.546C513.458,302.056,517.925,283.352,489.935,236.844z"></path>
</g>
</svg>
